HIERARCHY
ROOT hip
{
  OFFSET 0 90.174 2.4664
  CHANNELS 6 Xposition Yposition Zposition Zrotation Xrotation Yrotation
  JOINT abdomen
  {
    OFFSET 0 -1.186 -1.5018
    CHANNELS 6 Xposition Yposition Zposition Zrotation Xrotation Yrotation
    JOINT abdomen2
    {
      OFFSET 0 9.964 0.2134
      CHANNELS 6 Xposition Yposition Zposition Zrotation Xrotation Yrotation
      JOINT chest
      {
        OFFSET 0 13.134 -3.2573
        CHANNELS 6 Xposition Yposition Zposition Zrotation Xrotation Yrotation
        JOINT neck
        {
          OFFSET 0 20.686 -1.6905
          CHANNELS 6 Xposition Yposition Zposition Zrotation Xrotation Yrotation
          JOINT head
          {
            OFFSET 0 7.238 -0.1237
            CHANNELS 6 Xposition Yposition Zposition Zrotation Xrotation Yrotation
            End Site
            {
              OFFSET 0 0 0
            }
          }
        }
        JOINT lCollar
        {
          OFFSET 1.7069 20.075 5.0056
          CHANNELS 6 Xposition Yposition Zposition Zrotation Xrotation Yrotation
          JOINT lShldr
          {
            OFFSET 13.6458 -0.047 -4.849
            CHANNELS 6 Xposition Yposition Zposition Zrotation Xrotation Yrotation
            JOINT lForeArm
            {
              OFFSET 28.3255 -0.9759 2.2888
              CHANNELS 6 Xposition Yposition Zposition Zrotation Xrotation Yrotation
              JOINT lHand
              {
                OFFSET 22.1583 -0.53 10.8316
                CHANNELS 6 Xposition Yposition Zposition Zrotation Xrotation Yrotation
                JOINT lThumb1
                {
                  OFFSET 0.786 0.112 2.5817
                  CHANNELS 6 Xposition Yposition Zposition Zrotation Xrotation Yrotation
                  JOINT lThumb2
                  {
                    OFFSET 0.3601 -0.878 4.2331
                    CHANNELS 6 Xposition Yposition Zposition Zrotation Xrotation Yrotation
                    JOINT lThumb2_End
                    {
                      OFFSET 1.8127 -1.216 2.2227
                      CHANNELS 6 Xposition Yposition Zposition Zrotation Xrotation Yrotation
                      End Site
                      {
                        OFFSET 0.0181 -0.0122 0.0222
                      }
                    }
                  }
                }
                JOINT lCarpal1
                {
                  OFFSET 0.9571 1.114 1.7695
                  CHANNELS 6 Xposition Yposition Zposition Zrotation Xrotation Yrotation
                  JOINT lIndex1
                  {
                    OFFSET 4.1246 0.487 4.1451
                    CHANNELS 6 Xposition Yposition Zposition Zrotation Xrotation Yrotation
                    JOINT lIndex2
                    {
                      OFFSET 3.4052 -1.454 2.7682
                      CHANNELS 6 Xposition Yposition Zposition Zrotation Xrotation Yrotation
                      JOINT lIndex2_End
                      {
                        OFFSET 1.4531 -1.795 1.2713
                        CHANNELS 6 Xposition Yposition Zposition Zrotation Xrotation Yrotation
                        End Site
                        {
                          OFFSET 0.0145 -0.0179 0.0127
                        }
                      }
                    }
                  }
                  JOINT lMid1
                  {
                    OFFSET 5.6954 0.21 2.1184
                    CHANNELS 6 Xposition Yposition Zposition Zrotation Xrotation Yrotation
                    JOINT lMid2
                    {
                      OFFSET 3.9766 -1.54 2.3863
                      CHANNELS 6 Xposition Yposition Zposition Zrotation Xrotation Yrotation
                      JOINT lMid2_End
                      {
                        OFFSET 1.4042 -1.926 1.125
                        CHANNELS 6 Xposition Yposition Zposition Zrotation Xrotation Yrotation
                        End Site
                        {
                          OFFSET 0.014 -0.0193 0.0113
                        }
                      }
                    }
                  }
                }
                JOINT lCarpal2
                {
                  OFFSET 2.0956 0.66 -0.3894
                  CHANNELS 6 Xposition Yposition Zposition Zrotation Xrotation Yrotation
                  JOINT lRing1
                  {
                    OFFSET 5.0395 -0.09 2.4971
                    CHANNELS 6 Xposition Yposition Zposition Zrotation Xrotation Yrotation
                    JOINT lRing2
                    {
                      OFFSET 3.7921 -1.552 1.4806
                      CHANNELS 6 Xposition Yposition Zposition Zrotation Xrotation Yrotation
                      JOINT lRing2_End
                      {
                        OFFSET 1.4655 -1.808 0.9609
                        CHANNELS 6 Xposition Yposition Zposition Zrotation Xrotation Yrotation
                        End Site
                        {
                          OFFSET 0.0147 -0.0181 0.0096
                        }
                      }
                    }
                  }
                  JOINT lPinky1
                  {
                    OFFSET 4.9141 -1.269 0.3591
                    CHANNELS 6 Xposition Yposition Zposition Zrotation Xrotation Yrotation
                    JOINT lPinky2
                    {
                      OFFSET 3.1477 -1.685 0.8462
                      CHANNELS 6 Xposition Yposition Zposition Zrotation Xrotation Yrotation
                      JOINT lPinky2_End
                      {
                        OFFSET 0.8055 -1.585 0.7955
                        CHANNELS 6 Xposition Yposition Zposition Zrotation Xrotation Yrotation
                        End Site
                        {
                          OFFSET 0.0081 -0.0158 0.008
                        }
                      }
                    }
                  }
                }
              }
            }
          }
        }
        JOINT rCollar
        {
          OFFSET -1.7069 20.075 5.0056
          CHANNELS 6 Xposition Yposition Zposition Zrotation Xrotation Yrotation
          JOINT rShldr
          {
            OFFSET -13.6458 -0.047 -4.849
            CHANNELS 6 Xposition Yposition Zposition Zrotation Xrotation Yrotation
            JOINT rForeArm
            {
              OFFSET -28.3255 -0.9759 2.2888
              CHANNELS 6 Xposition Yposition Zposition Zrotation Xrotation Yrotation
              JOINT rHand
              {
                OFFSET -22.1583 -0.53 10.8316
                CHANNELS 6 Xposition Yposition Zposition Zrotation Xrotation Yrotation
                JOINT rThumb1
                {
                  OFFSET -0.786 0.112 2.5817
                  CHANNELS 6 Xposition Yposition Zposition Zrotation Xrotation Yrotation
                  JOINT rThumb2
                  {
                    OFFSET -0.3601 -0.878 4.2331
                    CHANNELS 6 Xposition Yposition Zposition Zrotation Xrotation Yrotation
                    JOINT rThumb2_End
                    {
                      OFFSET -1.8127 -1.216 2.2227
                      CHANNELS 6 Xposition Yposition Zposition Zrotation Xrotation Yrotation
                      End Site
                      {
                        OFFSET -0.0181 -0.0122 0.0222
                      }
                    }
                  }
                }
                JOINT rCarpal1
                {
                  OFFSET -0.9571 1.114 1.7695
                  CHANNELS 6 Xposition Yposition Zposition Zrotation Xrotation Yrotation
                  JOINT rIndex1
                  {
                    OFFSET -4.1246 0.487 4.1451
                    CHANNELS 6 Xposition Yposition Zposition Zrotation Xrotation Yrotation
                    JOINT rIndex2
                    {
                      OFFSET -3.4052 -1.454 2.7682
                      CHANNELS 6 Xposition Yposition Zposition Zrotation Xrotation Yrotation
                      JOINT rIndex2_End
                      {
                        OFFSET -1.4531 -1.795 1.2713
                        CHANNELS 6 Xposition Yposition Zposition Zrotation Xrotation Yrotation
                        End Site
                        {
                          OFFSET -0.0145 -0.018 0.0127
                        }
                      }
                    }
                  }
                  JOINT rMid1
                  {
                    OFFSET -5.6954 0.21 2.1184
                    CHANNELS 6 Xposition Yposition Zposition Zrotation Xrotation Yrotation
                    JOINT rMid2
                    {
                      OFFSET -3.9766 -1.54 2.3863
                      CHANNELS 6 Xposition Yposition Zposition Zrotation Xrotation Yrotation
                      JOINT rMid2_End
                      {
                        OFFSET -1.4042 -1.926 1.125
                        CHANNELS 6 Xposition Yposition Zposition Zrotation Xrotation Yrotation
                        End Site
                        {
                          OFFSET -0.014 -0.0193 0.0113
                        }
                      }
                    }
                  }
                }
                JOINT rCarpal2
                {
                  OFFSET -2.0956 0.66 -0.3894
                  CHANNELS 6 Xposition Yposition Zposition Zrotation Xrotation Yrotation
                  JOINT rRing1
                  {
                    OFFSET -5.0395 -0.09 2.4971
                    CHANNELS 6 Xposition Yposition Zposition Zrotation Xrotation Yrotation
                    JOINT rRing2
                    {
                      OFFSET -3.7921 -1.552 1.4806
                      CHANNELS 6 Xposition Yposition Zposition Zrotation Xrotation Yrotation
                      JOINT rRing2_End
                      {
                        OFFSET -1.4655 -1.808 0.9609
                        CHANNELS 6 Xposition Yposition Zposition Zrotation Xrotation Yrotation
                        End Site
                        {
                          OFFSET -0.0147 -0.0181 0.0096
                        }
                      }
                    }
                  }
                  JOINT rPinky1
                  {
                    OFFSET -4.9141 -1.269 0.3592
                    CHANNELS 6 Xposition Yposition Zposition Zrotation Xrotation Yrotation
                    JOINT rPinky2
                    {
                      OFFSET -3.1477 -1.685 0.8462
                      CHANNELS 6 Xposition Yposition Zposition Zrotation Xrotation Yrotation
                      JOINT rPinky2_End
                      {
                        OFFSET -0.8055 -1.585 0.7955
                        CHANNELS 6 Xposition Yposition Zposition Zrotation Xrotation Yrotation
                        End Site
                        {
                          OFFSET -0.0081 -0.0158 0.008
                        }
                      }
                    }
                  }
                }
              }
            }
          }
        }
      }
    }
  }
  JOINT lThigh
  {
    OFFSET 8.367 -8.2066 0.5982
    CHANNELS 6 Xposition Yposition Zposition Zrotation Xrotation Yrotation
    JOINT lShin
    {
      OFFSET 2.1923 -43.463 -0.4932
      CHANNELS 6 Xposition Yposition Zposition Zrotation Xrotation Yrotation
      JOINT lFoot
      {
        OFFSET 0.7333 -45.8593 -2.6451
        CHANNELS 6 Xposition Yposition Zposition Zrotation Xrotation Yrotation
        End Site
        {
          OFFSET 2.6618 -4.2699 12.3931
        }
      }
    }
  }
  JOINT rThigh
  {
    OFFSET -8.367 -8.2066 0.5982
    CHANNELS 6 Xposition Yposition Zposition Zrotation Xrotation Yrotation
    JOINT rShin
    {
      OFFSET -2.1923 -43.463 -0.4931
      CHANNELS 6 Xposition Yposition Zposition Zrotation Xrotation Yrotation
      JOINT rFoot
      {
        OFFSET -0.7333 -45.8593 -2.6451
        CHANNELS 6 Xposition Yposition Zposition Zrotation Xrotation Yrotation
        End Site
        {
          OFFSET -2.6618 -4.2699 12.3931
        }
      }
    }
  }
}
MOTION
Frames:	4
Frame Time:	0.0333333
0 90.174 2.4664 0 0 -0 0 -1.186 -1.5018 0 0 -0 0 9.964 0.2134 0 0 -0 0 13.134 -3.2573 0 0 -0 0 20.686 -1.6905 0 0 -0 0 7.238 -0.1237 0 0 -0 1.7069 20.075 5.0056 0 0 -0 13.6458 -0.047 -4.849 1.66051 0.0835086 5.75766 28.3255 -0.9759 2.2888 -0.0175111 0.895433 15.7816 22.1583 -0.53 10.8316 7.95139e-016 -1.98785e-016 -0 0.786 0.112 2.5817 5.46658e-016 -3.97569e-016 -0 0.3601 -0.878 4.2331 5.96354e-016 0 -0 1.8127 -1.216 2.2227 3.97569e-016 1.98785e-016 9.54166e-015 0.9571 1.114 1.7695 1.49089e-016 -3.97569e-016 -0 4.1246 0.487 4.1451 6.4605e-016 0 3.18055e-015 3.4052 -1.454 2.7682 5.96354e-016 0 3.18055e-015 1.4531 -1.795 1.2713 8.94531e-016 -1.98785e-016 6.36111e-015 5.6954 0.21 2.1184 6.4605e-016 0 3.18055e-015 3.9766 -1.54 2.3863 5.96354e-016 0 3.18055e-015 1.4042 -1.926 1.125 8.94531e-016 -1.98785e-016 6.36111e-015 2.0956 0.66 -0.3894 1.49089e-016 -3.97569e-016 -0 5.0395 -0.09 2.4971 6.4605e-016 0 3.18055e-015 3.7921 -1.552 1.4806 5.96354e-016 0 3.18055e-015 1.4655 -1.808 0.9609 8.94531e-016 -1.98785e-016 6.36111e-015 4.9141 -1.269 0.3591 6.4605e-016 0 3.18055e-015 3.1477 -1.685 0.8462 5.96354e-016 0 3.18055e-015 0.8055 -1.585 0.7955 8.94531e-016 -1.98785e-016 6.36111e-015 -1.7069 20.075 5.0056 0 0 -0 -13.6458 -0.047 -4.849 -1.4496 0.0636048 -5.0245 -28.3255 -0.9759 2.2888 -1.74811 1.20616 -16.8394 -22.1583 -0.53 10.8316 -1.19271e-015 1.98785e-016 -3.18055e-015 -0.786 0.112 2.5817 -3.97569e-016 1.98785e-016 -3.18055e-015 -0.3601 -0.878 4.2331 -2.98177e-016 1.98785e-016 -3.18055e-015 -1.8127 -1.216 2.2227 -2.98177e-016 3.97569e-016 -0 -0.9571 1.114 1.7695 4.96962e-016 0 -6.36111e-015 -4.1246 0.487 4.1451 -9.93923e-017 3.97569e-016 -0 -3.4052 -1.454 2.7682 -8.94531e-016 5.96354e-016 -0 -1.4531 -1.795 1.2713 -3.97569e-016 3.97569e-016 -0 -5.6954 0.21 2.1184 -9.93923e-017 3.97569e-016 -0 -3.9766 -1.54 2.3863 -8.94531e-016 5.96354e-016 -0 -1.4042 -1.926 1.125 -3.97569e-016 3.97569e-016 -0 -2.0956 0.66 -0.3894 4.96962e-016 0 -6.36111e-015 -5.0395 -0.09 2.4971 -9.93923e-017 3.97569e-016 -0 -3.7921 -1.552 1.4806 -8.94531e-016 5.96354e-016 -0 -1.4655 -1.808 0.9609 -3.97569e-016 3.97569e-016 -0 -4.9141 -1.269 0.3592 -9.93923e-017 3.97569e-016 -0 -3.1477 -1.685 0.8462 -8.94531e-016 5.96354e-016 -0 -0.8055 -1.585 0.7955 -3.97569e-016 3.97569e-016 -0 8.367 -8.2066 0.5982 -4.66115 -1.03232 0.120763 2.1923 -43.463 -0.4932 0.00990601 1.55097 0.177175 0.7333 -45.8593 -2.6451 4.65196 -0.54114 -0.255042 -8.367 -8.2066 0.5982 4.66115 -1.03222 -0.120763 -2.1923 -43.463 -0.4931 -0.00990459 1.5509 -0.177176 -0.7333 -45.8593 -2.6451 -4.65196 -0.541171 0.255041 
-1.76302 -15.8288 47.4051 117.661 -75.3762 -63.373 0 -1.186 -1.5018 0.174186 -6.04494 0.0600546 1.77636e-015 9.964 0.2134 0.357805 -12.0897 0.139884 1.77636e-015 13.134 -3.2573 0.357806 -12.0897 0.139883 3.55271e-015 20.686 -1.6905 2.26683e-006 -10.1231 1.60134e-006 1.77636e-015 7.238 -0.1237 2.15383e-007 23.3478 5.73784e-007 1.7069 20.075 5.0056 7.43837 -40.2414 16.5735 13.6458 -0.047 -4.849 -57.9444 0.454578 -36.6446 28.3255 -0.9759 2.2888 49.1931 -29.6842 -96.222 22.1583 -0.53 10.8316 -27.0567 -61.3195 25.2176 0.786 0.112 2.5817 1.59028e-015 6.4605e-016 -6.36111e-015 0.3601 -0.878 4.2331 -2.18663e-015 -1.83876e-015 -6.36111e-015 1.8127 -1.216 2.2227 3.97569e-016 2.08724e-015 -0 0.9571 1.114 1.7695 7.95139e-016 4.96962e-016 -0 4.1246 0.487 4.1451 9.93923e-016 1.73937e-015 3.18055e-015 3.4052 -1.454 2.7682 -1.39149e-015 -1.3418e-015 -3.18055e-015 1.4531 -1.795 1.2713 -8.27607e-032 -1.49089e-015 -3.18055e-015 5.6954 0.21 2.1184 9.93923e-016 1.73937e-015 3.18055e-015 3.9766 -1.54 2.3863 -1.39149e-015 -1.3418e-015 -3.18055e-015 1.4042 -1.926 1.125 -8.27607e-032 -1.49089e-015 -3.18055e-015 2.0956 0.66 -0.3894 7.95139e-016 4.96962e-016 -0 5.0395 -0.09 2.4971 9.93923e-016 1.73937e-015 3.18055e-015 3.7921 -1.552 1.4806 -1.39149e-015 -1.3418e-015 -3.18055e-015 1.4655 -1.808 0.9609 -8.27607e-032 -1.49089e-015 -3.18055e-015 4.9141 -1.269 0.3591 9.93923e-016 1.73937e-015 3.18055e-015 3.1477 -1.685 0.8462 -1.39149e-015 -1.3418e-015 -3.18055e-015 0.8055 -1.585 0.7955 -8.27607e-032 -1.49089e-015 -3.18055e-015 -1.7069 20.075 5.0056 -15.4903 -3.52115 -46.122 -13.6458 -0.047 -4.849 57.7293 8.60432 44.8989 -28.3255 -0.9759 2.2888 -4.39161 18.7315 121.139 -22.1583 -0.53 10.8316 -37.2956 -28.4505 -38.064 -0.786 0.112 2.5817 -7.63314e-007 -2.44067e-006 -4.27995e-007 -0.3601 -0.878 4.2331 0 1.59028e-015 -0 -1.8127 -1.216 2.2227 7.63314e-007 2.44067e-006 4.27995e-007 -0.9571 1.114 1.7695 -2.64834e-031 -4.77083e-015 -3.18055e-015 -4.1246 0.487 4.1451 -7.63314e-007 -2.44067e-006 -4.27995e-007 -3.4052 -1.454 2.7682 -0 0 9.54166e-015 -1.4531 -1.795 1.2713 7.63314e-007 2.44067e-006 4.27995e-007 -5.6954 0.21 2.1184 -7.63314e-007 -2.44067e-006 -4.27995e-007 -3.9766 -1.54 2.3863 -0 0 9.54166e-015 -1.4042 -1.926 1.125 7.63314e-007 2.44067e-006 4.27995e-007 -2.0956 0.66 -0.3894 -2.64834e-031 -4.77083e-015 -3.18055e-015 -5.0395 -0.09 2.4971 -7.63314e-007 -2.44067e-006 -4.27995e-007 -3.7921 -1.552 1.4806 -0 0 9.54166e-015 -1.4655 -1.808 0.9609 7.63314e-007 2.44067e-006 4.27995e-007 -4.9141 -1.269 0.3592 -7.63314e-007 -2.44067e-006 -4.27995e-007 -3.1477 -1.685 0.8462 -0 0 9.54166e-015 -0.8055 -1.585 0.7955 7.63314e-007 2.44067e-006 4.27995e-007 8.367 -8.2066 0.5982 3.69616 -4.56269 4.51286 2.1923 -43.463 -0.4932 23.8228 80.399 -21.5423 0.7333 -45.8593 -2.6451 15.6877 53.6748 -2.00504 -8.367 -8.2066 0.5982 -0.837842 -6.92813 -8.39985 -2.1923 -43.463 -0.4931 -167.211 65.9185 160.98 -0.7333 -45.8593 -2.6451 -9.1678 30.9196 0.911748 
-0.0658574 -8.64758 42.5868 -90.3963 -89.7304 89.3514 0 -1.186 -1.5018 0.164829 -5.40995 0.0497759 -2.77556e-017 9.964 0.2134 0.33667 -10.8196 0.116048 0 13.134 -3.2573 0.33667 -10.8197 0.116048 -1.11022e-016 20.686 -1.6905 9.1759e-006 -5.94388 1.29858e-006 1.11022e-016 7.238 -0.1237 7.87623e-009 20.2049 -1.71194e-007 1.7069 20.075 5.0056 6.81541 -38.5995 15.3726 13.6458 -0.047 -4.849 -53.8809 0.48074 -33.721 28.3255 -0.9759 2.2888 48.2169 -22.7838 -90.4406 22.1583 -0.53 10.8316 -27.9318 -57.583 21.8292 0.786 0.112 2.5817 3.18055e-015 -1.19271e-014 -0 0.3601 -0.878 4.2331 1.59028e-015 -3.18055e-015 -3.18055e-015 1.8127 -1.216 2.2227 1.59028e-015 -7.95139e-015 -6.36111e-015 0.9571 1.114 1.7695 3.18055e-015 -1.59028e-015 -3.18055e-015 4.1246 0.487 4.1451 -4.77083e-015 6.36111e-015 1.59028e-014 3.4052 -1.454 2.7682 3.18055e-015 -4.77083e-015 3.18055e-015 1.4531 -1.795 1.2713 3.18055e-015 -1.51076e-014 3.18055e-015 5.6954 0.21 2.1184 -4.77083e-015 6.36111e-015 1.59028e-014 3.9766 -1.54 2.3863 3.18055e-015 -4.77083e-015 3.18055e-015 1.4042 -1.926 1.125 3.18055e-015 -1.51076e-014 3.18055e-015 2.0956 0.66 -0.3894 3.18055e-015 -1.59028e-015 -3.18055e-015 5.0395 -0.09 2.4971 -4.77083e-015 6.36111e-015 1.59028e-014 3.7921 -1.552 1.4806 3.18055e-015 -4.77083e-015 3.18055e-015 1.4655 -1.808 0.9609 3.18055e-015 -1.51076e-014 3.18055e-015 4.9141 -1.269 0.3591 -4.77083e-015 6.36111e-015 1.59028e-014 3.1477 -1.685 0.8462 3.18055e-015 -4.77083e-015 3.18055e-015 0.8055 -1.585 0.7955 3.18055e-015 -1.51076e-014 3.18055e-015 -1.7069 20.075 5.0056 -14.665 -4.66608 -43.212 -13.6458 -0.047 -4.849 54.1723 8.60135 41.4228 -28.3255 -0.9759 2.2888 -1.03374 14.1771 112.004 -22.1583 -0.53 10.8316 -34.0633 -26.9955 -35.2666 -0.786 0.112 2.5817 2.4646e-006 1.12896e-006 1.514e-006 -0.3601 -0.878 4.2331 -2.4646e-006 -1.12896e-006 -1.514e-006 -1.8127 -1.216 2.2227 8.34896e-015 4.37326e-015 -1.90833e-014 -0.9571 1.114 1.7695 -1.59028e-015 7.95139e-016 -6.36111e-015 -4.1246 0.487 4.1451 2.4646e-006 1.12896e-006 1.514e-006 -3.4052 -1.454 2.7682 -2.4646e-006 -1.12896e-006 -1.514e-006 -1.4531 -1.795 1.2713 1.19271e-015 6.36111e-015 -3.18055e-015 -5.6954 0.21 2.1184 2.4646e-006 1.12896e-006 1.514e-006 -3.9766 -1.54 2.3863 -2.4646e-006 -1.12896e-006 -1.514e-006 -1.4042 -1.926 1.125 1.19271e-015 6.36111e-015 -3.18055e-015 -2.0956 0.66 -0.3894 -1.59028e-015 7.95139e-016 -6.36111e-015 -5.0395 -0.09 2.4971 2.4646e-006 1.12896e-006 1.514e-006 -3.7921 -1.552 1.4806 -2.4646e-006 -1.12896e-006 -1.514e-006 -1.4655 -1.808 0.9609 1.19271e-015 6.36111e-015 -3.18055e-015 -4.9141 -1.269 0.3592 2.4646e-006 1.12896e-006 1.514e-006 -3.1477 -1.685 0.8462 -2.4646e-006 -1.12896e-006 -1.514e-006 -0.8055 -1.585 0.7955 1.19271e-015 6.36111e-015 -3.18055e-015 8.367 -8.2066 0.5982 3.09515 -4.1093 4.10902 2.1923 -43.463 -0.4932 13.3081 75.0785 -11.4302 0.7333 -45.8593 -2.6451 14.7963 49.9689 -1.76396 -8.367 -8.2066 0.5982 -0.415277 -6.10885 -7.22592 -2.1923 -43.463 -0.4931 -162.195 73.4902 157.063 -0.7333 -45.8593 -2.6451 -8.85092 28.3798 1.03664 
-0.0658574 -8.64758 42.5868 -90.3963 -89.7304 89.3514 0 -1.186 -1.5018 0.165443 -5.20501 0.0490085 0 9.964 0.2134 0.337481 -10.4099 0.113892 -5.55112e-017 13.134 -3.2573 0.337481 -10.4099 0.113892 1.11022e-016 20.686 -1.6905 1.33402e-005 -2.66655 1.32706e-006 0 7.238 -0.1237 4.11882e-009 18.7693 -1.92748e-007 1.7069 20.075 5.0056 7.60789 -39.4914 15.885 13.6458 -0.047 -4.849 -53.8809 0.480737 -33.7211 28.3255 -0.9759 2.2888 48.2169 -22.7838 -90.4406 22.1583 -0.53 10.8316 -27.5184 -58.0769 22.0482 0.786 0.112 2.5817 -1.59028e-015 0 -0 0.3601 -0.878 4.2331 -3.18055e-015 0 -6.36111e-015 1.8127 -1.216 2.2227 -3.18055e-015 -7.95139e-016 -3.18055e-015 0.9571 1.114 1.7695 0 0 -0 4.1246 0.487 4.1451 -7.95139e-015 1.82882e-014 9.54166e-015 3.4052 -1.454 2.7682 -1.59028e-015 -3.18055e-015 -0 1.4531 -1.795 1.2713 -3.18055e-015 0 -6.36111e-015 5.6954 0.21 2.1184 -7.95139e-015 1.82882e-014 9.54166e-015 3.9766 -1.54 2.3863 -1.59028e-015 -3.18055e-015 -0 1.4042 -1.926 1.125 -3.18055e-015 0 -6.36111e-015 2.0956 0.66 -0.3894 0 0 -0 5.0395 -0.09 2.4971 -7.95139e-015 1.82882e-014 9.54166e-015 3.7921 -1.552 1.4806 -1.59028e-015 -3.18055e-015 -0 1.4655 -1.808 0.9609 -3.18055e-015 0 -6.36111e-015 4.9141 -1.269 0.3591 -7.95139e-015 1.82882e-014 9.54166e-015 3.1477 -1.685 0.8462 -1.59028e-015 -3.18055e-015 -0 0.8055 -1.585 0.7955 -3.18055e-015 0 -6.36111e-015 -1.7069 20.075 5.0056 -15.0737 -5.79201 -43.4809 -13.6458 -0.047 -4.849 54.1723 8.60135 41.4228 -28.3255 -0.9759 2.2888 -1.03371 14.1772 112.004 -22.1583 -0.53 10.8316 -34.3475 -27.2047 -35.6707 -0.786 0.112 2.5817 -3.18055e-015 -1.98785e-015 1.27222e-014 -0.3601 -0.878 4.2331 4.9751e-006 -2.70336e-006 -1.62026e-006 -1.8127 -1.216 2.2227 7.95139e-016 2.34566e-014 -1.27222e-014 -0.9571 1.114 1.7695 -4.77083e-015 -1.98785e-015 9.54166e-015 -4.1246 0.487 4.1451 7.95139e-016 -1.59028e-015 -0 -3.4052 -1.454 2.7682 4.9751e-006 -2.70336e-006 -1.62026e-006 -1.4531 -1.795 1.2713 -3.18055e-015 3.1408e-014 3.18055e-015 -5.6954 0.21 2.1184 7.95139e-016 -1.59028e-015 -0 -3.9766 -1.54 2.3863 4.9751e-006 -2.70336e-006 -1.62026e-006 -1.4042 -1.926 1.125 -3.18055e-015 3.1408e-014 3.18055e-015 -2.0956 0.66 -0.3894 -4.77083e-015 -1.98785e-015 9.54166e-015 -5.0395 -0.09 2.4971 7.95139e-016 -1.59028e-015 -0 -3.7921 -1.552 1.4806 4.9751e-006 -2.70336e-006 -1.62026e-006 -1.4655 -1.808 0.9609 -3.18055e-015 3.1408e-014 3.18055e-015 -4.9141 -1.269 0.3592 7.95139e-016 -1.59028e-015 -0 -3.1477 -1.685 0.8462 4.9751e-006 -2.70336e-006 -1.62026e-006 -0.8055 -1.585 0.7955 -3.18055e-015 3.1408e-014 3.18055e-015 8.367 -8.2066 0.5982 3.09515 -4.1093 4.10902 2.1923 -43.463 -0.4932 13.3081 75.0785 -11.4302 0.7333 -45.8593 -2.6451 14.7963 49.9689 -1.76395 -8.367 -8.2066 0.5982 -0.415277 -6.10885 -7.22592 -2.1923 -43.463 -0.4931 -162.195 73.4902 157.063 -0.7333 -45.8593 -2.6451 -8.85092 28.3798 1.03664 
